# xmcd
#
# Track frame offsets: 
#        150
#        14851
#        29977
#        44995
#        58432
#        71258
#        85358
#        98358
#        113195
#        127546
#        141381
#        155475
#        169442
#        185002
#        198944
#        213536
#        228698
#        241180
#        253545
#        265762
#        277966
#        289987
#        303173
#        316528
#        329181
#        341871
#
# Disc length: 4719 seconds
#
# Revision: 2
# Processed by: cddbd v1.5.2PL0 Copyright (c) Steve Scherf et al.
# Submitted via: ExactAudioCopyFreeDBPlugin 1.0
#
DISCID=99126d1a
DTITLE=Various Artist - The Knoxville Sessios - CD 4
DYEAR=2016
DGENRE=Old Time Country Music
TTITLE0=Ridgel's Fountain Citians - The Bald Headed End of the Broom
TTITLE1=Ridgel's Fountain Citians - The Nick Nack Song
TTITLE2=Ridgel's Fountain Citians - Baby, Call Your Dog Off
TTITLE3=Ridgel's Fountain Citians - Gittin' Upstairs
TTITLE4=Louis Bird - It's Funny What Whiskey Will Do
TTITLE5=Louis Bird - Nothing Goes Hard with Me
TTITLE6=Southern Moonlight Entertainers - Then I'll Move to Town
TTITLE7=Southern Moonlight Entertainers - How to Make Love
TTITLE8=Leola Manning - The Arcade Building Moan
TTITLE9=Leola Manning - Satan Is Busy in Knoxville
TTITLE10=Leola Manning - Laying in the Graveyard
TTITLE11=Leola Manning - The Blues Is All Wrong
TTITLE12=Bess Pennington - If You Think I'm Not Worthy
TTITLE13=Bess Pennington - Jack and May
TTITLE14=Uncle Jimmy Thompson - Lynchburg
TTITLE15=Uncle Jimmy Thompson - Uncle Jimmy's Favorite Fiddling Pieces
TTITLE16=Etowah Quartet - Walking with My Lord
TTITLE17=Etowah Quartet - Back in the Years
TTITLE18=Maynard Baird and His Orchestra - Postage Stomp
TTITLE19=Maynard Baird and His Orchestra - I Can't Stop Loving You
TTITLE20=Alex Hood and His Railroad Boys - L. and N. Rag
TTITLE21=Alex Hood and His Railroad Boys - Corbin Slide
TTITLE22=Lowe Stokes, Homer Miller, and etc. - The Great Hatfield-McCoy 
TTITLE22=Feud - Pt 1
TTITLE23=Lowe Stokes, Homer Miller, and etc. - The Great Hatfield-McCoy 
TTITLE23=Feud - Pt 2
TTITLE24=Lowe Stokes, Homer Miller, and etc. - The Great Hatfield-McCoy 
TTITLE24=Feud - Pt 3
TTITLE25=Lowe Stokes, Homer Miller, and etc. - The Great Hatfield-McCoy 
TTITLE25=Feud - Pt 4
EXTD=
EXTT0=
EXTT1=
EXTT2=
EXTT3=
EXTT4=
EXTT5=
EXTT6=
EXTT7=
EXTT8=
EXTT9=
EXTT10=
EXTT11=
EXTT12=
EXTT13=
EXTT14=
EXTT15=
EXTT16=
EXTT17=
EXTT18=
EXTT19=
EXTT20=
EXTT21=
EXTT22=
EXTT23=
EXTT24=
EXTT25=
PLAYORDER=
